<?xml version="1.0" encoding="UTF-8"?>
<svg width="32" height="32" viewBox="0 0 32 32" fill="none" xmlns="http://www.w3.org/2000/svg">
  <!-- Flower petals -->
  <path d="M16 4C18 4 20 6 20 8C20 10 18 12 16 12C14 12 12 10 12 8C12 6 14 4 16 4Z" fill="#FF69B4"/>
  <path d="M24 12C26 12 28 14 28 16C28 18 26 20 24 20C22 20 20 18 20 16C20 14 22 12 24 12Z" fill="#FF69B4"/>
  <path d="M16 20C18 20 20 22 20 24C20 26 18 28 16 28C14 28 12 26 12 24C12 22 14 20 16 20Z" fill="#FF69B4"/>
  <path d="M8 12C10 12 12 14 12 16C12 18 10 20 8 20C6 20 4 18 4 16C4 14 6 12 8 12Z" fill="#FF69B4"/>
  <!-- Flower center -->
  <circle cx="16" cy="16" r="4" fill="#FFD700"/>
</svg> 